<?xml version="1.0" encoding="utf-8"?>
<!-- Generator: Adobe Illustrator 19.0.1, SVG Export Plug-In . SVG Version: 6.00 Build 0)  -->
<svg version="1.1" id="Layer_1" xmlns="http://www.w3.org/2000/svg" xmlns:xlink="http://www.w3.org/1999/xlink" x="0px" y="0px"
	 viewBox="0 0 20 60" style="enable-background:new 0 0 20 60;" xml:space="preserve">
<style type="text/css">
	.st0{fill:#424141;}
</style>
<g>
	<path class="st0" d="M1.3,26h17.4c0.3,0,0.6-0.1,0.9-0.4c0.2-0.2,0.4-0.5,0.4-0.9s-0.1-0.6-0.4-0.9l-8.7-8.7
		c-0.2-0.2-0.5-0.4-0.9-0.4S9.4,15,9.1,15.2l-8.7,8.7c-0.2,0.2-0.4,0.5-0.4,0.9s0.1,0.6,0.4,0.9C0.7,25.9,1,26,1.3,26z"/>
	<path class="st0" d="M18.7,34H1.3c-0.3,0-0.6,0.1-0.9,0.4c-0.2,0.2-0.4,0.5-0.4,0.9c0,0.3,0.1,0.6,0.4,0.9l8.7,8.7
		c0.2,0.2,0.5,0.4,0.9,0.4s0.6-0.1,0.9-0.4l8.7-8.7c0.2-0.2,0.4-0.5,0.4-0.9c0-0.3-0.1-0.6-0.4-0.9C19.3,34.1,19,34,18.7,34z"/>
</g>
</svg>
