<?xml version="1.0" encoding="utf-8"?>
<!-- Generator: Adobe Illustrator 19.0.0, SVG Export Plug-In . SVG Version: 6.00 Build 0)  -->
<svg version="1.1" id="Layer_1" xmlns="http://www.w3.org/2000/svg" xmlns:xlink="http://www.w3.org/1999/xlink" x="0px" y="0px"
	 viewBox="170.1 324.3 271.7 179.9" style="enable-background:new 170.1 324.3 271.7 179.9;" xml:space="preserve">
<style type="text/css">
	.st0{fill:#FFFFFF;}
</style>
<g>
	<path class="st0" d="M170.1,450.2c13.5-34.3,27-68.7,40.5-103.1c1-2.6,1.3-5.6,2.1-8.9c-23.4,10.8-30,11.3-35,2.7
		c2.9-0.4,5.8-0.2,8.4-1.2c6.5-2.4,12.9-5.2,19.3-7.9c3.2-1.4,6.2-3.3,9.5-4.2c5.1-1.4,8.5,1.6,8.3,6.8c-0.1,3-0.6,6-1.4,8.8
		c-3.9,13.2-8,26.4-12,39.6c-0.6,1.9-1.1,3.8-2.1,7.1c27.7-20.6,52.8-42,75.9-65.6c6,4.5,6.2,7,0.9,12.6
		c-18.7,19.6-38.8,37.5-60.3,53.9c-5.3,4-5.5,5.4-3.3,11.4c5.9,16.2,11.8,32.5,17.4,48.8c5.1,15.1,11,29.7,22.8,41
		c2.5,2.4,5.4,4.4,8.3,6.3c3.5,2.2,7.2,3.3,11.3,1c0.8-0.4,2.1,0,3.1,0.1c-0.4,1.1-0.5,3-1.2,3.3c-2.1,0.9-4.4,1.6-6.6,1.5
		c-11.3-0.8-20.7-5.8-28.8-13.5c-13.5-12.9-19.6-29.8-25-47.1c-4.5-14.6-9.2-29.2-13.9-43.7c-0.5-1.7-1.5-3.2-2.7-5.6
		c-1.4,3.2-2.6,5.6-3.6,8c-7.1,17.6-14.2,35.2-21.4,52.7c-0.8,2-2.4,3.6-3.6,5.4c-1.8-1.6-3.7-3.1-5.4-4.8c-0.7-0.7-1-1.7-1.5-2.5
		C170.1,452.2,170.1,451.2,170.1,450.2z"/>
	<path class="st0" d="M428.6,369.5c6.8,0.6,8.8,5.4,10.3,10.4c3.6,12.1,3.8,24.3,1,36.6c-2.7,12-7.2,23.2-14.8,33
		c-6.9,9-15.1,8.7-21.4-0.8c-3-4.5-5-9.6-8-15.3c-3.1,4.9-5.9,9.4-8.8,14c-5.2,8.2-11.5,8.2-16.8,0c-4-6.2-6.2-12.8-5.9-20.3
		c0.1-1.4-0.1-2.8-0.3-5.5c-4.4,5-8.1,9.1-11.8,13.3c-5.5,6.3-10.9,12.6-16.4,18.9c-2.7,3-5.5,6.3-10.1,4.5c-4.9-1.9-7.5-6-7.4-10.9
		c0.1-5.4,0.7-11.1,2.6-16c5.7-14.9,12-29.6,18.6-45.4c-3.2,1.1-5.6,1.8-8,2.6c-22.4,8.4-40.3,23.2-56,40.7
		c-4.4,5-8.6,10.2-12.6,15.5c-1.9,2.5-2.9,5.5-4.4,8.3c-0.8,1.4-1.7,2.8-2.5,4.2c-1.7-1.3-4.8-2.5-5-4.1c-0.5-4.1-0.9-8.9,0.6-12.6
		c5.7-14.2,12-28.2,18.3-42.1c3-6.7,6.4-13.1,9.6-19.6c5.2,1,7.1,4.4,5.1,10.1c-2.4,6.7-5.6,13.2-8.3,19.8c-0.7,1.6-0.7,3.5-1.1,5.2
		c0.4,0.2,0.9,0.4,1.3,0.7c1.5-1.2,2.9-2.4,4.4-3.7c13.2-11.5,26.6-22.9,43.6-28.6c4.7-1.6,10.2-2.1,15-1.3
		c7.3,1.2,10.1,7.6,7.4,14.4c-5.5,13.4-11.1,26.7-16.5,40.1c-0.8,2.1-1,4.4-1.5,6.6c0.4,0.2,0.7,0.5,1.1,0.7c1.7-1.4,3.4-2.8,5-4.3
		c14.7-14.1,25.4-31.3,36.2-48.3c2.4-3.8,4.8-4.3,8.5-2.8c4,1.6,4.8,4.2,3.5,8.4c-3.4,10.8-6.7,21.6-9.2,32.5
		c-1.1,4.7-0.2,9.8-0.2,14.7c0.4,0.1,0.9,0.2,1.3,0.3c0.8-0.7,1.8-1.3,2.3-2.2c6.6-11.5,13.3-23,19.8-34.6c1.3-2.3,1-6,5.4-4.5
		c3.9,1.3,7.2,3.1,6.6,8c-0.7,6.6-1.8,13.2-2.3,19.8c-0.5,6.5-0.4,12.9,3.5,19.3C432.4,426.2,437,399.5,428.6,369.5z"/>
</g>
</svg>
